<svg id="Capa_1" data-name="Capa 1" xmlns="http://www.w3.org/2000/svg" viewBox="0 0 43.93 50"><title>doctor</title><path d="M47,23.34a6.94,6.94,0,1,0-8.1,6.82v7.26a10.26,10.26,0,1,1-20.52,0l0-8.32A12.61,12.61,0,0,0,26,24.49a1.77,1.77,0,0,0,.39-1.39A24.75,24.75,0,0,0,31.3,9.35c0-6.52-2.92-7.2-7.75-8.31h0a1.82,1.82,0,0,0-1.62-1,1.84,1.84,0,1,0,0,3.68A1.75,1.75,0,0,0,23,3.28h0c4.69,1.08,6,1.37,6,6.06a22.63,22.63,0,0,1-4.44,12.28,1.73,1.73,0,0,0-1.22.59c-1.37,1.59-3.57,3.49-6.16,3.49S12.4,23.82,11,22.24a1.77,1.77,0,0,0-1.21-.59A22.56,22.56,0,0,1,5.36,9.35c0-4.69,1.25-5,6-6.06v0A1.83,1.83,0,1,0,12.45,0,1.87,1.87,0,0,0,10.8,1h0C6,2.15,3,2.81,3,9.35A24.62,24.62,0,0,0,8,23.12a1.76,1.76,0,0,0,.39,1.39c2.34,2.67,4.94,4.23,7.62,4.59v8.32a12.58,12.58,0,1,0,25.15,0V30.16A6.93,6.93,0,0,0,47,23.34ZM40,28a4.63,4.63,0,1,1,4.61-4.63A4.65,4.65,0,0,1,40,28Z" transform="translate(-3.03)"/><path d="M40,19.89a3.46,3.46,0,1,0,3.47,3.46A3.46,3.46,0,0,0,40,19.89Z" transform="translate(-3.03)"/></svg>