<svg height="512pt" viewBox="-28 0 512 512.0001" width="512pt" xmlns="http://www.w3.org/2000/svg"><path d="m225.574219 127.609375c-2.464844-5.773437-7.132813-11.6875-18.976563-8.195313l-93.339844 37.039063c-7.488281 2.976563-11.164062 11.488281-8.191406 18.976563l23.78125 59.929687c3.632813 8.253906 10.507813 10.773437 18.976563 8.191406l38.121093-15.128906c.058594-.019531.113282-.042969.171876-.066406l55.042968-21.84375c9.949219-4.503907 10.863282-11.753907 8.191406-18.976563zm-54.664063 62.417969c-.011718.003906-.019531.007812-.03125.011718-1.386718.542969-5.605468.632813-7.265625-3.160156-1.582031-3.625 1.753907-6.738281 3.148438-7.292968l54.6875-21.703126 4.140625 10.445313zm40.863282-56.527344 4.140624 10.441406-54.683593 21.699219c-1.394531.554687-5.5625.550781-7.289063-3.148437-1.3125-2.800782.261719-6.136719 3.132813-7.285157zm-69.125 95.964844-23.496094-59.210938 19.496094-7.738281c.539062 9.988281 6.367187 13.664063 10.5625 15.964844-1.476563 4.550781-1.324219 9.429687.460937 13.929687 1.785156 4.503906 5.023437 8.15625 9.214844 10.457032-1.476563 4.546874-2.46875 12.261718 3.257812 18.863281zm37.933593-15.054688c-2.875 1.148438-6.300781-.210937-7.289062-3.148437-1.25-3.695313 1.753906-6.738281 3.148437-7.292969l54.683594-21.699219 4.144531 10.441407zm0 0"/><path d="m454.589844 68.660156s-18.4375-46.464844-18.460938-46.523437c-3.121094-7.863281-12.679687-11.953125-20.492187-8.851563l-8.433594 3.351563-2.800781-7.058594c-3.085938-7.777344-11.925782-11.597656-19.703125-8.507813l-28.03125 11.125c-3.183594 1.261719-5.871094 3.597657-7.578125 6.574219l-15.472656 27.066407-91.613282 36.355468c-3.585937-1.777344-7.882812-2.085937-11.886718-.496094l-152.332032 60.453126c-5.824218 2.308593-9.164062 8.472656-7.9375 14.652343 1.128906 5.683594 1.679688 11.410157 1.671875 17.09375-4.0625 1.355469-7.816406 3.578125-10.933593 6.519531-3.566407 3.359376-7.808594 9.351563-13.253907 9.105469l-23.796875-.863281c-4.988281-.1875-18.933594 3.683594-19.328125 18.101562-.28125 10.242188 7.785157 18.855469 18.027344 19.199219l30.933594 1.03125c-8.734375 10.851563-24.441407 21.144531-26.199219 24.347657-13.488281 24.566406-29.386719 71.523437-26.660156 156.722656.128906 4.058594 3.460937 7.257812 7.492187 7.257812.082031 0 .160157 0 .242188-.003906 4.140625-.132812 7.390625-3.59375 7.257812-7.734375-2.015625-63.003906 6.535157-115.367187 24.097657-147.71875 0 0 12.089843-9.164063 16.496093-13.480469 11.648438 21.40625 34.121094 34.203125 57.695313 34.203125 5.636718 0 11.335937-.734375 16.964844-2.253906l10.949218 27.585937c-4.976562 2.304688-11.640625 6.101563-17.8125 11.925782-10.949218 10.324218-22.445312 29.011718-15.019531 59.425781l20.019531 80.460937c2.203125 8.855469-3.199218 17.890626-12.046875 20.140626 0 0-73.234375 18.617187-73.273437 18.625-9.179688 2.335937-18.714844-3.820313-20.457032-13.066407-2.140624-11.378906-4.078124-25.882812-5.449218-40.84375-.378906-4.125-4.03125-7.171875-8.15625-6.78125-4.125.378907-7.160156 4.027344-6.78125 8.15625 1.414062 15.414063 3.417968 30.417969 5.648437 42.246094 2.769531 14.699219 16.222657 25.765625 31.132813 25.796875 7.460937.015625 81.03125-19.59375 81.03125-19.59375 16.824218-4.273438 27.101562-21.457031 22.910156-38.300781l-20.011719-80.429688c-4.53125-18.554687-1.042969-33.550781 10.371094-44.566406 4.921875-4.75 10.378906-7.824219 14.289063-9.625 6.117187 8.734375 14.625 11.457031 23.027343 11.457031 10.128907 0 20.109375-3.960937 25.570313-6.128906l25.925781-10.289062c22.628906-8.976563 33.730469-34.6875 24.765625-57.28125l-8.375-21.414063 30.398438-12.0625c7.617187-3.023437 13.605468-8.832031 16.855468-16.359375s3.375-15.871094.351563-23.488281l-2.304688-5.808594 142.6875-56.621094c5.945313-2.359375 8.867188-9.117187 6.503907-15.070312l-4.226563-10.652344s16.632813-6.601563 16.664063-6.613281c7.875-3.125 11.957031-12.660156 8.847656-20.492188zm-92.480469-42.441406c.023437-.039062.054687-.066406.089844-.082031l28.03125-11.121094c.089843-.035156.195312.007813.230469.097656l2.796874 7.054688-37.292968 14.800781zm-339.371094 184.742188c-2.011719-.066407-3.640625-1.757813-3.535156-3.765626.148437-2.910156 2.476563-3.597656 3.789063-3.546874l23.796874.863281c6.175782.226562 12.3125-2.085938 16.8125-6.328125l5.8125-5.476563c-1.523437 6.761719-3.859374 13.335938-6.972656 19.582031zm210.492188 51.78125c5.925781 14.9375-1.402344 31.914062-16.339844 37.839843l-25.925781 10.289063c-22.140625 8.785156-28.820313 5.332031-32.800782-3.636719l-13.507812-34.042969 16.027344-6.359375 6.066406 15.28125c1.992188 5.023438 6.34375 8.675781 11.636719 9.769531 0 0 10.496093 2.113282 10.996093 2.113282 3.484376 0 6.609376-2.441406 7.339844-5.988282.835938-4.054687-1.773437-8.023437-5.828125-8.859374l-9.476562-1.957032c-.328125-.066406-.601563-.296875-.726563-.613281l-6.066406-15.277344 50.246094-19.941406zm30.445312-52.917969-131.523437 52.191406c-25.777344 10.234375-55.085938-2.308594-65.519532-27.957031 16.675782-22.582032 23.277344-50.894532 18.234376-78.582032l150.4375-59.699218 37.171874 93.671875c1.542969 3.894531.964844 16.308593-8.800781 20.375zm176.535157-134.613281-113.769532 45.144531c-3.851562 1.527343-5.734375 5.886719-4.203125 9.738281 1.167969 2.941406 4.539063 5.910156 9.738281 4.207031l83.160157-33.003906 2.976562 7.5-139.535156 55.371094-2.976563-7.5 23.789063-9.4375c3.851563-1.527344 5.734375-5.886719 4.203125-9.738281-1.527344-3.851563-5.886719-5.734376-9.738281-4.207032l-23.785157 9.441406-19.039062-47.980468 170.140625-67.515625c.726563-.253907.929687.238281 1.011719.4375l18.464844 46.527343c.078124.199219.230468.789063-.4375 1.015626zm0 0"/></svg>