<svg id="Layer_1" data-name="Layer 1" xmlns="http://www.w3.org/2000/svg" viewBox="0 0 328.64 511"><title>villager</title><path d="M238.9,226a11.81,11.81,0,0,0,5.57,1.34,15,15,0,0,0,7.9-2.35,21.88,21.88,0,0,0,4.17-3.42A15.15,15.15,0,0,0,267,227a13.89,13.89,0,0,0,11.55-5.23,21.12,21.12,0,0,0,13.92,3.53c5-.56,8.89-3.48,9.78-7.44,1.05-4.65-2.27-8.54-3.37-9.82a57.63,57.63,0,0,0-32.22-18.77,69,69,0,0,0-17.5-1.29c-6.2.38-12.24,3.81-17.11,6.58l-.62.35a85.87,85.87,0,0,0-18.42,14c-1.14,1.13-3.79,3.78-3.67,7.49a8.48,8.48,0,0,0,5.86,7.49,14.71,14.71,0,0,0,7.15.39,46.52,46.52,0,0,0,12-3.45A10.41,10.41,0,0,0,238.9,226Zm-17.72-9.67a7.83,7.83,0,0,1-3.31,0,1.31,1.31,0,0,1-.41-.25,7.44,7.44,0,0,1,1.24-1.46,77.76,77.76,0,0,1,16.7-12.69l.63-.36c4.14-2.35,9.29-5.28,13.62-5.55a60.75,60.75,0,0,1,15.4,1.15,49.48,49.48,0,0,1,27.71,16.11c1.78,2.08,1.65,2.8,1.64,2.82-.06.28-1.09,1-2.81,1.21a12.94,12.94,0,0,1-11.27-4.69,4,4,0,0,0-7.14,2c-.28,2.38-3,4.48-5.68,4.31s-5.55-2.57-6.44-5.56a4,4,0,0,0-7-1.33c-1.8,2.3-3.67,4.68-5.91,6.07-1.88,1.18-4.05,1.47-5.42.74a2.4,2.4,0,0,1-1.09-1.58,1.11,1.11,0,0,1,0-.78A4,4,0,0,0,238.5,210a4,4,0,0,0-2.18.65A38.49,38.49,0,0,1,221.18,216.3Z" transform="translate(-91.82 0)"/><path d="M412.58,379.05c-10.45-36-32.61-65.26-60.79-80.35-5.13-2.75-10.49-5.06-15.69-7.3-7.63-3.3-14.85-6.42-21.42-10.8-9.2-6.13-19.3-17.84-17.51-30.62a4.26,4.26,0,0,0,0-1.13c17-12.11,28.45-32,30-52.4,8.57,1.37,17.21-.76,23.45-6,8.45-7.09,11.17-19.36,6.32-28.55a19.39,19.39,0,0,0-6.44-7,187.5,187.5,0,0,0,31.34-10.13c6.22-2.63,13.66-6.62,16-14.22,2.65-8.69-2.35-18-14.08-26.12A208,208,0,0,0,335.8,80a4.59,4.59,0,0,0-.1-.51c-1.56-5-2.89-10.32-4.17-15.42-1.78-7-3.61-14.34-6.13-21.39-5.33-14.94-13-25.95-22.88-32.69-8.19-5.61-18.83-8.89-31.63-9.74a204.85,204.85,0,0,0-22.46.15c-3,.13-6.17.26-9.23.33-1.32,0-2.64.06-4,.08-10.36.17-21.08.35-30.83,5-11.06,5.27-20,16.21-26,31.63-2.41,6.25-4.22,12.72-6,19-1.59,5.68-3.25,11.53-5.31,17.08-19.29,4.4-40,11.68-57.63,25.15-3.69,2.81-8.31,6.72-11.28,11.93-3.32,5.82-4,12.5-1.71,17.87,2.83,6.74,9.26,10.33,15.07,13.15A307.31,307.31,0,0,0,160,160.32a22.21,22.21,0,0,0-10.46,10.05,22.06,22.06,0,0,0,28.12,30.24,84.1,84.1,0,0,0,30.54,45.82,3.93,3.93,0,0,0,.22,1.61c4.42,12.56-.31,32.29-20.87,48-7.41,5.68-15.85,10.4-24,15-9.39,5.25-19.09,10.67-27.65,17.71-25.53,21-35.92,51.76-40.14,73.85-5.31,27.77-4.11,56.18-3,83.67.23,5.31.64,15.2,8,20.2,4.29,2.92,9.54,3,13.38,3.14C167.33,510.89,221,511,273.34,511H288.9l74.19,0c8.59,0,17.47,0,26.23-2.07,7.3-1.72,13.75-5.06,20.93-10.82,6.57-5.28,7.16-10.82,7.9-17.84l0-.16C422.49,439.16,420.72,407.05,412.58,379.05ZM348,305.8l1.29.71c-4.4,43-7.78,86.44-10.13,129.83-7.68-.25-16.85-1.38-21.84-7.18C312,423,312.59,413,313.6,404.1c4.08-35.76,9.92-71.88,15.64-106.91l3.68,1.59C338,301,343.16,303.21,348,305.8Zm-26.34-12.08c-4.91,30-9.92,60.88-13.87,91.69q-21.28-1.43-42.71-1.52c0-.1,0-.19,0-.29a363.77,363.77,0,0,1-1.41-51.78,25,25,0,0,0,9,8.36c8.57,4.5,20.15,2.68,28.15-4.43,6.46-5.74,10.7-14.64,11.93-25.05.89-7.5.26-14.92-.6-22.15A102.59,102.59,0,0,0,321.65,293.72Zm-113.11-1.91a137.45,137.45,0,0,1,14.76,8.82c3.35,2.19,6.81,4.46,10.38,6.52,7.93,4.57,15.41,7.26,22.37,8.07a31.26,31.26,0,0,1-7.88,15.5c-4.49,4.57-10.59,7-16.31,6.61-9.78-.72-17.26-9.54-20.32-17.95C208.38,310.73,208.28,301.2,208.54,291.81Zm95.44-4c.9,7.31,1.66,14.79.8,22-1,8.45-4.3,15.54-9.28,20C290,334.59,282,336,276.44,333.05c-5.95-3.13-9.08-10.35-11.6-17.85a30.72,30.72,0,0,0,4.31-.86c10.17-2.76,17.46-10,24.51-17.08A111.28,111.28,0,0,1,304,287.77ZM207.87,13.09c8.17-3.9,18-4.06,27.5-4.22,1.34,0,2.68,0,4-.08,3.14-.07,6.32-.21,9.39-.35a201.76,201.76,0,0,1,21.58-.15C281.69,9,291,11.85,298,16.64c8.42,5.77,15.1,15.44,19.85,28.76.08.21.14.44.22.65a260.18,260.18,0,0,0-134.31.56c.69-2.11,1.4-4.21,2.19-6.26C189.54,31,196.29,18.62,207.87,13.09ZM180.18,58.6c.26-.94.54-1.89.8-2.83a251.62,251.62,0,0,1,139.9-.59c1,3.63,1.94,7.28,2.85,10.86s1.82,7.22,2.83,10.85a245.91,245.91,0,0,0-35.82-8.39C260.5,63.74,227,64,191.25,69.13c-4.76.69-9.77,1.49-14.94,2.47C177.74,67.26,179,62.89,180.18,58.6Zm-76.26,66.75c-1.29-3.08-.81-7.11,1.28-10.78,2.25-3.93,5.9-7,9.17-9.52,23.89-18.22,54.24-24.51,78-27.95,35-5.06,67.65-5.28,97.09-.65,33.63,5.29,64.6,17.26,89.57,34.62,4,2.8,13.14,10.06,11,17.16-1.34,4.41-6.8,7.21-11.41,9.17a181.68,181.68,0,0,1-41.26,11.91c1.68-8.58,1.43-17.17-4.44-23.74-3-3.32-6.9-5.34-10.36-7-34.64-16.41-75.76-22.14-110-15.32-10.81,2.15-25.86,7.36-36.24,19.94a41.28,41.28,0,0,0-9.42,30.69,299,299,0,0,1-51.84-19.52C110.6,132.2,105.67,129.51,103.92,125.35Zm80.45,68.37a4,4,0,0,0-2.53-3,4.1,4.1,0,0,0-1.42-.26,4,4,0,0,0-2.46.85,14,14,0,1,1-5.33-24.76,4,4,0,0,0,4.57-5.67c-4.76-9.82-2.6-22.9,5.36-32.55,8.87-10.75,22.08-15.27,31.61-17.17,32.09-6.4,72.31-.76,105,14.7,2.87,1.36,5.83,2.87,7.8,5.07,5.41,6,3.15,16.34.23,25.6a4,4,0,0,0,6.17,4.5,10.33,10.33,0,0,1,8.37-1.3,12.3,12.3,0,0,1,8.05,5.94c3,5.72,1.06,14.08-4.37,18.63s-13.48,5.7-20.88,3.26a4,4,0,0,0-5.28,3.86c.19,21.74-12.81,43.61-32.34,54.42-19.08,10.55-44.25,10.66-64.14.27C203.35,236,188.65,215.91,184.37,193.72Zm33.39,58.82c.42.23.82.48,1.25.7A77.5,77.5,0,0,0,254.83,262a74.49,74.49,0,0,0,34.09-8.12c.27,10.09,5.53,19.09,12.28,26A101.72,101.72,0,0,0,288,291.57c-6.59,6.58-12.82,12.81-20.92,15s-18.11.08-29.36-6.4c-3.36-1.95-6.72-4.15-10-6.28-5.65-3.7-11.47-7.5-17.86-10.35C215.83,274.08,219.22,263.28,217.76,252.54Zm-25.28,49.93a74.76,74.76,0,0,0,7.94-7.05c-.1,8.76.39,18,3.56,26.72,4.82,13.23,15.53,22.34,27.29,23.22.61,0,1.23.07,1.84.07a29.73,29.73,0,0,0,20.8-9.06c.56-.57,1.08-1.17,1.61-1.78A370.5,370.5,0,0,0,257,383.9c-22.23.16-44.46,1.38-66.5,3.68l-5-80.22C187.91,305.81,190.23,304.19,192.48,302.47Zm-25,15.6c3.42-1.91,6.88-3.85,10.31-5.88L183.11,398c.41,6.61.83,13.45-.25,19.88-.79,4.76-2.81,11.37-7.92,15.88-4.35,3.83-10.55,5.11-15.09,3.11a4.65,4.65,0,0,0-.69-.23c-1.14-37.44-2.09-75-2.85-112.18C159.93,322.3,163.66,320.2,167.48,318.07ZM105.32,499.82c-3.51-2.4-4.22-8.09-4.47-13.89-1.14-27-2.31-55,2.82-81.82,5.62-29.38,18.89-53.94,37.36-69.14,2.36-2,4.82-3.75,7.34-5.46,1.2,57.38,2.85,115.46,4.92,172.79q-19.48-.29-38.93-.73C110.56,501.48,107.48,501.29,105.32,499.82ZM288.9,503c-41.82,0-84.69,0-127.55-.54q-1-28.52-1.92-57.23a20,20,0,0,0,5.12.67,24,24,0,0,0,15.71-6.06c6.88-6.07,9.53-14.54,10.54-20.58,1.23-7.34.78-14.64.34-21.71l-.12-1.89a681.24,681.24,0,0,1,115.76-2.19c-.4,3.26-.8,6.51-1.17,9.77-1.21,10.56-1.86,22.55,5.6,31.22,7,8.1,18.2,9.65,27.52,10q-1.5,29.33-2.36,58.56Zm121.26-23.71v.16c-.67,6.34-1,9.24-4.94,12.41-6.2,5-11.67,7.84-17.74,9.27-7.84,1.85-16.25,1.85-24.38,1.86H344.42c1.88-63.77,6.07-128.22,12.47-191.71,22,15.11,39.25,40.09,48,70.07C412.69,408.26,414.38,439.38,410.16,479.24Z" transform="translate(-91.82 0)"/></svg>