<svg height="512pt" viewBox="0 0 512 512" width="512pt" xmlns="http://www.w3.org/2000/svg"><path d="m409.601562 443.734375v-8.535156c0-4.710938-3.820312-8.53125-8.535156-8.53125-4.710937 0-8.53125 3.820312-8.53125 8.53125v8.535156c0 4.710937 3.820313 8.53125 8.53125 8.53125 4.714844 0 8.535156-3.820313 8.535156-8.53125zm0 0"/><path d="m324.265625 426.667969c-4.710937 0-8.53125 3.820312-8.53125 8.53125v8.535156c0 4.710937 3.820313 8.53125 8.53125 8.53125 4.714844 0 8.535156-3.820313 8.535156-8.53125v-8.535156c0-4.710938-3.820312-8.53125-8.535156-8.53125zm0 0"/><path d="m281.601562 426.667969c-4.714843 0-8.535156 3.820312-8.535156 8.53125v8.535156c0 4.710937 3.820313 8.53125 8.535156 8.53125 4.710938 0 8.53125-3.820313 8.53125-8.53125v-8.535156c0-4.710938-3.820312-8.53125-8.53125-8.53125zm0 0"/><path d="m136.535156 358.398438c-4.714844 0-8.535156 3.820312-8.535156 8.535156v8.53125c0 4.714844 3.820312 8.535156 8.535156 8.535156 4.710938 0 8.53125-3.820312 8.53125-8.535156v-8.53125c0-4.714844-3.820312-8.535156-8.53125-8.535156zm0 0"/><path d="m93.867188 358.398438c-4.714844 0-8.535157 3.820312-8.535157 8.535156v8.53125c0 4.714844 3.820313 8.535156 8.535157 8.535156 4.710937 0 8.53125-3.820312 8.53125-8.535156v-8.53125c0-4.714844-3.820313-8.535156-8.53125-8.535156zm0 0"/><path d="m170.667969 512c4.710937 0 8.53125-3.820312 8.53125-8.535156 0-4.710938-3.820313-8.53125-8.53125-8.53125h-8.535157c-4.710937 0-8.53125 3.820312-8.53125 8.53125 0 4.714844 3.820313 8.535156 8.53125 8.535156zm0 0"/><path d="m454.597656 60.910156c-2.339844-3.695312-6.414062-5.925781-10.789062-5.914062h-.136719c-4.414063.03125-8.496094 2.351562-10.785156 6.128906l-83.875 137.222656-48.816407-62.777344c-2.40625-3.117187-6.125-4.941406-10.0625-4.941406h-.085937c-3.890625-.011718-7.574219 1.761719-9.992187 4.8125l-57.933594 72.40625-52.308594-71.3125h17.921875c14.136719 0 25.597656-11.464844 25.597656-25.601562 0-4.714844 3.820313-8.535156 8.535157-8.535156h68.265624c10.851563-.03125 20.5-6.914063 24.054688-17.167969.511719 0 1.042969.101562 1.546875.101562 23.5625 0 42.664063-19.101562 42.664063-42.664062 0-23.566407-19.101563-42.667969-42.664063-42.667969-23.566406 0-42.667969 19.101562-42.667969 42.667969.027344 2.867187.355469 5.730469.972656 8.53125h-111.90625c-14.136718 0-25.597656 11.460937-25.597656 25.601562 0 4.710938-3.824218 8.53125-8.535156 8.53125h-34.132812c-12.957032.105469-23.792969 9.871094-25.238282 22.746094-1.445312 12.878906 6.960938 24.800781 19.570313 27.773437l-86.65625 123.792969c-1.820313 2.605469-2.042969 6.007813-.574219 8.828125 1.46875 2.820313 4.382812 4.59375 7.566406 4.59375h58.742188l-41.753906 46.933594c-3.371094 3.765625-4.207032 9.164062-2.136719 13.773438 2.070312 4.613281 6.65625 7.574218 11.710937 7.558593h7.570313v85.335938h-34.132813c-4.714844 0-8.535156 3.820312-8.535156 8.53125 0 4.714843 3.820312 8.535156 8.535156 8.535156h221.863282v51.199219h-25.597657c-4.714843 0-8.535156 3.820312-8.535156 8.53125 0 4.714844 3.820313 8.535156 8.535156 8.535156h298.664063c4.714844 0 8.535156-3.820312 8.535156-8.535156 0-4.710938-3.820312-8.53125-8.535156-8.53125h-42.664063v-85.332032h7.566407c5.011718 0 9.5625-2.925781 11.644531-7.480468 2.082031-4.558594 1.316406-9.914063-1.964844-13.699219l-58.453125-68.421875c-2.433594-2.722656-5.914062-4.273438-9.566406-4.265625h-43.09375v-21.335937c0-7.066407-5.730469-12.796876-12.800782-12.796876h-25.597656c-7.070312 0-12.800781 5.730469-12.800781 12.796876v21.335937h-29.363281l-37.914063-42.667969h255.007813c4.714844 0 8.535156-3.820312 8.535156-8.53125v-110.933594c-.003906-1.625-.464844-3.210937-1.332031-4.582031zm-138.863281-43.84375c14.136719 0 25.597656 11.460938 25.597656 25.601563 0 14.136719-11.460937 25.597656-25.597656 25.597656-.523437 0-1.101563-.179687-1.640625-.210937-3.457031-9.449219-12.148438-15.980469-22.183594-16.675782-1.109375-2.773437-1.710937-5.726562-1.777344-8.710937 0-14.140625 11.460938-25.601563 25.601563-25.601563zm-230.402344 93.867188c0-4.714844 3.820313-8.535156 8.535157-8.535156h34.132812c14.136719 0 25.601562-11.460938 25.601562-25.597657 0-4.714843 3.820313-8.535156 8.53125-8.535156h128c4.714844 0 8.535157 3.820313 8.535157 8.535156 0 4.710938-3.820313 8.53125-8.535157 8.53125h-68.265624c-14.140626 0-25.601563 11.460938-25.601563 25.601563 0 4.710937-3.820313 8.53125-8.53125 8.53125h-93.867187c-4.714844 0-8.535157-3.820313-8.535157-8.53125zm12.367188 153.601562h106.714843l-46.453124 59.730469h-113.355469zm64.433593-17.070312h-17.066406v-17.066406h17.066406zm60.175782 21.871094 48.34375 54.402343-.46875.527344h-90.609375zm-162.574219 71.996093h110.933594v85.335938h-110.933594zm128 85.335938v-85.335938h67.277344l-41.753907 46.933594c-3.371093 3.769531-4.207031 9.164063-2.136718 13.777344 2.066406 4.609375 6.65625 7.570312 11.710937 7.558593h7.566407v17.066407zm59.730469 0v-17.066407h110.933594v85.332032h-110.933594zm128-17.066407h68.269531v85.332032h-17.066406v-25.601563c0-4.710937-3.820313-8.53125-8.535157-8.53125-4.710937 0-8.53125 3.820313-8.53125 8.53125v25.601563h-34.136718zm34.765625-74.242187 48.863281 57.175781h-92.082031zm-64.628907 57.175781h-113.265624l53.09375-59.734375h105.328124zm-12.800781-93.867187h17.066407v17.066406h-17.066407zm162.132813-42.667969h-261.648438l-3.753906-4.265625c-.242188-.265625-.488281-.53125-.734375-.769531-.488281-.644532-1.0625-1.21875-1.707031-1.707032-1.734375-1.34375-3.917969-1.972656-6.101563-1.75-.351562 0-.707031 0-1.058593 0h-40.730469v-21.375c0-7.070312-5.730469-12.800781-12.800781-12.800781h-25.597657c-7.070312 0-12.800781 5.730469-12.800781 12.800781v21.332032h-32.214844c-3.648437-.003906-7.128906 1.546875-9.5625 4.269531l-3.773437 4.265625h-57.523438l83.625-119.464844h40.109375l63.019532 85.886719c2.34375 3.222656 6.0625 5.160156 10.050781 5.230469 3.988281.140625 7.796875-1.648438 10.238281-4.804688l58.027344-72.53125 49.304687 63.382813c2.585938 3.332031 6.644531 5.175781 10.851563 4.929687 4.210937-.242187 8.027344-2.542968 10.210937-6.148437l83.523438-136.617188 51.046875 80.21875zm0 0"/></svg>