<svg id="Layer_1" data-name="Layer 1" xmlns="http://www.w3.org/2000/svg" viewBox="0 0 440.08 478.37"><defs><style>.cls-1{fill:none;stroke:#454646;stroke-width:17px;}.cls-1,.cls-3{stroke-miterlimit:10;}.cls-2{fill:#fff;}.cls-3{stroke:#231f20;}</style></defs><title>mafia</title><path d="M199.7,34.57a6.87,6.87,0,0,0-7.91,5.64c-.24,1.45-6.39,35.49-48.19,35.49a6.87,6.87,0,0,0,0,13.74,59.59,59.59,0,0,0,61.74-47A6.87,6.87,0,0,0,199.7,34.57Z" transform="translate(-26.81 -0.12)"/><path d="M322.24,75.7c-41.46,0-47.94-34.07-48.2-35.52a6.87,6.87,0,1,0-13.54,2.3,59.59,59.59,0,0,0,61.74,47,6.87,6.87,0,1,0,0-13.74Z" transform="translate(-26.81 -0.12)"/><path class="cls-1" d="M97.68,220S99,460.86,228.91,461.47C357.55,462.07,360.13,220,360.13,220" transform="translate(-26.81 -0.12)"/><path d="M364.58,147.72l-.69-4.36L345.46,23.43A27.35,27.35,0,0,0,318.29.12h-.87A27,27,0,0,0,312,.66L257.31,11.6a117.27,117.27,0,0,1-22.89,2.26h-3a117.37,117.37,0,0,1-22.9-2.26L153.91.68a28.38,28.38,0,0,0-33.67,23.49L101.93,143.36l-.68,4.36c-49.35,8.84-74.44,21.57-74.44,37.9,0,38,134.82,48.1,206.11,48.1S439,223.67,439,185.62C439,169.29,413.94,156.56,364.58,147.72Zm-9.13,31H110.39l4.23-27.48h236.6ZM133.85,26.27a14.78,14.78,0,0,1,17.36-12.12l54.61,10.92a131,131,0,0,0,25.6,2.53h3A131,131,0,0,0,260,25.07l54.69-10.94a13.84,13.84,0,0,1,2.71-.27h.89a13.67,13.67,0,0,1,13.54,11.68l17.26,112H116.73ZM232.92,220C108.45,220,40.55,197.3,40.55,185.62c0-3.36,11.06-14.46,58.5-23.53l-3.44,22.49a6.86,6.86,0,0,0,6.77,7.91H363.46a6.85,6.85,0,0,0,6.78-7.91l-3.43-22.49c47.42,9.07,58.48,20.17,58.48,23.53C425.29,197.3,357.39,220,232.92,220Z" transform="translate(-26.81 -0.12)"/><rect class="cls-2" x="317.45" y="257.72" width="19.53" height="31.54"/><rect class="cls-2" x="71.02" y="317.66" width="38.91" height="58.31"/><path class="cls-3" d="M68.53,407l16.93-4.52v61.8l71.12,13.56V383.49l11.15-3.26,21.84,11.67a193.08,193.08,0,0,0,67.68,76.34l8.94,5.84,38-50.73L294,417a124.5,124.5,0,0,1-38.16-37.6l17.51-4.68-7-20.56,76.52-20.35-7-20.59,130.32-34.87-7-20.58-25.34,6.78-8.45-24.83-21,5.61,8.44,24.84-25,6.69-35-35.53L40.55,324.74Zm65.91,45.11L107.59,447V396.59l26.86-7.18ZM272.8,427.84l-12.61,16.85a169.3,169.3,0,0,1-47.28-53.83l21.42-5.73A146.69,146.69,0,0,0,272.8,427.84Zm74.13-162.51,17.5,17.77-35.5,9.5-7-20.58Zm-46,12.3,14,41.15L259.4,333.54l-14-41.15ZM245.39,359.7v0l-48,12.57-28-15-86.9,23.52-14-41.15L224.41,298Z" transform="translate(-26.81 -0.12)"/></svg>