<svg id="Capa_1" data-name="Capa 1" xmlns="http://www.w3.org/2000/svg" viewBox="0 0 512 509.41"><title>townhall</title><path d="M486.4,459.51V451a25.57,25.57,0,0,0-17.06-24V416.84a25.56,25.56,0,0,0-17.07-24V261.67a25.56,25.56,0,0,0,17.07-24v-15l15.55-31.1,24.61-24.61a8.53,8.53,0,0,0-1.59-13.32L260.45,2.55a8.51,8.51,0,0,0-8.89,0L4.09,153.56a8.53,8.53,0,0,0-2.85,11.71,9,9,0,0,0,1.26,1.61l24.62,24.61,15.55,31.1v15a25.55,25.55,0,0,0,17.07,24V392.81a25.57,25.57,0,0,0-17.07,24V427A25.58,25.58,0,0,0,25.6,451v8.53A25.63,25.63,0,0,0,0,485.11v17.07a8.53,8.53,0,0,0,8.53,8.53H503.47a8.53,8.53,0,0,0,8.53-8.53h0V485.11A25.62,25.62,0,0,0,486.4,459.51ZM452.27,237.64a8.55,8.55,0,0,1-8.53,8.54h-51.2a8.56,8.56,0,0,1-8.54-8.54v-8.53h68.27v8.53ZM213.34,392.82V261.67a25.54,25.54,0,0,0,17.06-24v-8.53h51.2v8.53a25.56,25.56,0,0,0,17.07,24V392.81a25.58,25.58,0,0,0-17.07,24v8.54H230.4v-8.54A25.54,25.54,0,0,0,213.34,392.82ZM68.27,246.18a8.55,8.55,0,0,1-8.53-8.54v-8.53H128v8.53a8.55,8.55,0,0,1-8.53,8.54Zm42.67,17.06v128H76.8v-128ZM128,261.67a25.59,25.59,0,0,0,8.54-5.09,25.45,25.45,0,0,0,8.53,5.09V392.81a25.45,25.45,0,0,0-8.53,5.09,25.59,25.59,0,0,0-8.54-5.09Zm17.07,155.17a8.54,8.54,0,0,1,8.53-8.53h51.2a8.55,8.55,0,0,1,8.54,8.53v8.54H145.07Zm17.07-25.6v-128h34.13v128ZM204.8,246.18H153.6a8.55,8.55,0,0,1-8.53-8.54v-8.53h68.27v8.53A8.56,8.56,0,0,1,204.8,246.18Zm93.87,170.66a8.54,8.54,0,0,1,8.53-8.53h51.2a8.55,8.55,0,0,1,8.54,8.53v8.54H298.67Zm17.07-25.6v-128h34.13v128ZM358.4,246.18H307.2a8.55,8.55,0,0,1-8.53-8.54v-8.53h68.27v8.53A8.56,8.56,0,0,1,358.4,246.18Zm8.54,15.49a25.45,25.45,0,0,0,8.53-5.09,25.45,25.45,0,0,0,8.53,5.09V392.81a25.45,25.45,0,0,0-8.53,5.09,25.45,25.45,0,0,0-8.53-5.09ZM384,416.84a8.55,8.55,0,0,1,8.54-8.53h51.2a8.54,8.54,0,0,1,8.53,8.53v8.54H384v-8.54Zm17.07-25.6v-128H435.2v128ZM35.4,175.64,22.24,162.48,256,19.83,489.77,162.48,476.6,175.64l-216.12-133a8.53,8.53,0,0,0-9,0Zm412.32,2.27H64.29L256,59.93ZM56.48,212,47.94,195H464.06L455.53,212Zm3.26,204.8a8.53,8.53,0,0,1,8.53-8.53h51.2a8.53,8.53,0,0,1,8.53,8.53v8.54H59.74Zm435.2,76.8H17.07v-8.53a8.53,8.53,0,0,1,8.53-8.53H204.8a8.54,8.54,0,1,0,0-17.07H42.67V451a8.72,8.72,0,0,1,8.87-8.54H460.47a8.73,8.73,0,0,1,8.87,8.54v8.53H307.2a8.54,8.54,0,0,0,0,17.07H486.4a8.55,8.55,0,0,1,8.54,8.53Z" transform="translate(0 -1.3)"/><path d="M256,88.31a34.13,34.13,0,1,0,34.14,34.13A34.17,34.17,0,0,0,256,88.31Zm0,51.2a17.07,17.07,0,1,1,17.07-17.07A17.06,17.06,0,0,1,256,139.51Z" transform="translate(0 -1.3)"/></svg>